<?xml version="1.0" encoding="UTF-8"?>
<svg width="224px" height="55px" viewBox="0 0 224 55" version="1.1" xmlns="http://www.w3.org/2000/svg" xmlns:xlink="http://www.w3.org/1999/xlink">
    <!-- Generator: Sketch 59.1 (86144) - https://sketch.com -->
    <title>logo</title>
    <desc>Created with Sketch.</desc>
    <defs>
        <linearGradient x1="50%" y1="0%" x2="50%" y2="100%" id="linearGradient-1">
            <stop stop-color="#EE7E46" offset="0%"></stop>
            <stop stop-color="#EB6170" offset="100%"></stop>
        </linearGradient>
    </defs>
    <g id="logo" stroke="none" stroke-width="1" fill="none" fill-rule="evenodd">
        <g id="Group" transform="translate(16.000000, 16.000000)">
            <g id="logo-color" transform="translate(0.000000, 2.763715)" fill="url(#linearGradient-1)">
                <path d="M15.6417801,0.00226872389 C16.7323573,-0.00470034998 16.5187664,0.00666134549 16.5545107,0.00611466335 C17.224635,0.00611466335 17.8947492,0.08349012 18.5648735,0.238243355 C19.2349977,0.392996589 19.8339123,0.650914778 20.3616351,1.01200566 C20.889358,1.37309654 21.3165558,1.84594655 21.6432414,2.43056988 C21.9699269,3.01519321 22.1332673,3.74596141 22.1332673,4.62289641 C22.1332673,5.63738984 21.8484687,6.48851986 21.2788631,7.17631201 C20.7092575,7.86410417 19.955379,8.33695418 19.0172051,8.59487624 C19.5868107,8.71523961 20.1145256,8.86569188 20.6003657,9.09782174 C21.0862058,9.32995159 21.5050272,9.63515478 21.8568424,10.0134405 C22.2086576,10.3917261 22.4808915,10.8387843 22.6735522,11.3546285 C22.866213,11.8704726 22.9625419,12.4464899 22.9625419,13.0826976 C22.9625419,13.9596326 22.7866369,14.7247899 22.4348217,15.3781924 C22.0830064,16.031595 21.7849756,16.4402145 21.0024382,16.9901972 C19.2988311,18.1875259 17.1302653,18.2621504 16.3509489,18.2666362 L4.710265,18.266905 C4.66437955,18.266905 4.61898647,18.2662203 4.57408884,18.2648629 L4.47512247,18.266905 C2.00358058,18.266905 0,16.2104998 0,13.6737955 C0,11.3990139 1.61118905,9.51046724 3.72619631,9.14472228 C3.54318716,8.68995486 3.4424019,8.19076828 3.4424019,7.66742142 C3.4424019,5.52097926 5.13773931,3.7809441 7.22904399,3.7809441 C8.07201288,3.7809441 8.8506467,4.06365756 9.47984818,4.54174363 L9.52327046,4.42833771 L9.52327046,4.42833771 L9.63872565,4.13426016 C10.7710741,1.29331898 13.5640569,0.00226872732 15.6417801,0.00226872389 Z" id="be-logo-color"></path>
            </g>
            <path d="M167.69338,18.0707708 L166.3465,18.0707708 L171.563528,6 L172.756966,6 L177.939896,18.0707708 L176.575967,18.0707708 L175.246136,14.8996361 L169.006161,14.8996361 L167.69338,18.0707708 Z M169.466487,13.7743948 L174.78581,13.7743948 L172.126149,7.36392891 L169.466487,13.7743948 Z M180.804146,22.1625576 L179.644807,22.1625576 L179.644807,10.0917867 L180.804146,10.0917867 L180.804146,11.4727647 L180.855294,11.4727647 C181.184911,10.9499227 181.625342,10.5549556 182.1766,10.2878515 C182.727857,10.0207474 183.287631,9.88719739 183.855937,9.88719739 C184.481074,9.88719739 185.046531,9.99517402 185.552324,10.2111305 C186.058117,10.427087 186.490023,10.722602 186.848056,11.0976843 C187.206089,11.4727666 187.484555,11.9160391 187.683463,12.427515 C187.88237,12.9389909 187.981822,13.49024 187.981822,14.0812788 C187.981822,14.6723176 187.88237,15.2235667 187.683463,15.7350426 C187.484555,16.2465185 187.206089,16.689791 186.848056,17.0648733 C186.490023,17.4399556 186.058117,17.7354706 185.552324,17.9514271 C185.046531,18.1673836 184.481074,18.2753602 183.855937,18.2753602 C183.287631,18.2753602 182.727857,18.1418101 182.1766,17.8747061 C181.625342,17.607602 181.184911,17.2240008 180.855294,16.7238911 L180.804146,16.7238911 L180.804146,22.1625576 Z M186.754286,14.0812788 C186.754286,13.6379997 186.68609,13.2203006 186.549697,12.8281691 C186.413303,12.4360376 186.21724,12.0950588 185.961502,11.8052224 C185.705764,11.5153861 185.390359,11.2852254 185.015277,11.1147334 C184.640194,10.9442414 184.213971,10.8589967 183.736593,10.8589967 C183.293314,10.8589967 182.88414,10.9414 182.509057,11.1062089 C182.133975,11.2710178 181.810045,11.498337 181.537258,11.7881733 C181.264471,12.0780097 181.051359,12.4189885 180.897916,12.81112 C180.744474,13.2032515 180.667753,13.6266335 180.667753,14.0812788 C180.667753,14.535924 180.744474,14.9593061 180.897916,15.3514376 C181.051359,15.7435691 181.264471,16.0817064 181.537258,16.3658597 C181.810045,16.650013 182.133975,16.8744907 182.509057,17.0392996 C182.88414,17.2041085 183.293314,17.2865117 183.736593,17.2865117 C184.213971,17.2865117 184.640194,17.2041085 185.015277,17.0392996 C185.390359,16.8744907 185.705764,16.6471715 185.961502,16.3573352 C186.21724,16.0674988 186.413303,15.72652 186.549697,15.3343885 C186.68609,14.942257 186.754286,14.5245579 186.754286,14.0812788 Z M191.647381,18.0707708 L190.488042,18.0707708 L190.488042,10.0917867 L191.647381,10.0917867 L191.647381,18.0707708 Z M191.886069,7.02294668 C191.886069,7.26163543 191.800824,7.45769825 191.630332,7.61114102 C191.45984,7.76458379 191.272302,7.84130403 191.067711,7.84130403 C190.863121,7.84130403 190.675583,7.76458379 190.505091,7.61114102 C190.334599,7.45769825 190.249354,7.26163543 190.249354,7.02294668 C190.249354,6.78425793 190.334599,6.58819511 190.505091,6.43475234 C190.675583,6.28130957 190.863121,6.20458934 191.067711,6.20458934 C191.272302,6.20458934 191.45984,6.28130957 191.630332,6.43475234 C191.800824,6.58819511 191.886069,6.78425793 191.886069,7.02294668 Z" id="Api" fill="#424650" fill-rule="nonzero"></path>
            <path d="M32,17.7142243 L32,6 L36.3031219,6 C37.5029844,6 38.465587,6.26486443 39.1909584,6.79460123 C39.9163299,7.32433803 40.2790102,8.08070345 40.2790102,9.06372019 C40.2790102,9.56615097 40.1590257,10.0439992 39.9190532,10.4972791 C39.6790807,10.950559 39.3463965,11.3028014 38.9209907,11.5540168 L38.9209907,11.5867839 C39.5427377,11.7724648 40.0035871,12.113785 40.3035527,12.6107545 C40.6035183,13.1077241 40.7534989,13.6456446 40.7534989,14.2245323 C40.7534989,15.4150748 40.3335533,16.2943155 39.4936495,16.8622807 C38.6537457,17.4302459 37.5902472,17.7142243 36.3031219,17.7142243 L32,17.7142243 Z M34.863294,10.5382379 L36.3358452,10.5382379 C36.6739883,10.5382379 36.9303188,10.4344766 37.1048442,10.2269509 C37.2793697,10.0194251 37.3666311,9.76275235 37.3666311,9.45692492 C37.3666311,9.1620199 37.2766428,8.92173052 37.0966634,8.73604958 C36.916684,8.55036864 36.646719,8.45752957 36.2867602,8.45752957 L34.863294,8.45752957 L34.863294,10.5382379 Z M34.863294,15.2566947 L36.5812705,15.2566947 C36.9739527,15.2566947 37.2793677,15.1392806 37.4975245,14.9044488 C37.7156814,14.669617 37.8247581,14.377447 37.8247581,14.0279299 C37.8247581,13.6784129 37.7211352,13.3917039 37.5138862,13.1677946 C37.3066372,12.9438852 37.0012223,12.8319322 36.5976321,12.8319322 L34.863294,12.8319322 L34.863294,15.2566947 Z M43.2077509,16.6984454 C42.2914923,15.8792648 41.8333698,14.8198071 41.8333698,13.5200405 C41.8333698,12.2202739 42.2914923,11.1553551 43.2077509,10.325252 C44.1240096,9.49514901 45.2529542,9.08010372 46.5946187,9.08010372 C47.9471911,9.08010372 49.0843165,9.49241845 50.006029,10.3170603 C50.9277416,11.1417021 51.388591,12.2093515 51.388591,13.5200405 C51.388591,14.8198071 50.9304686,15.8765342 50.0142099,16.6902536 C49.0979512,17.503973 47.9635527,17.9108266 46.6109804,17.9108266 C45.2584081,17.9108266 44.1240096,17.5067036 43.2077509,16.6984454 Z M44.6966638,13.5200405 C44.6966638,14.1316953 44.8820943,14.6231963 45.252961,14.9945582 C45.6238276,15.3659201 46.0764962,15.5515982 46.6109804,15.5515982 C47.1454646,15.5515982 47.5981333,15.3659201 47.9689999,14.9945582 C48.3398665,14.6231963 48.525297,14.1316953 48.525297,13.5200405 C48.525297,12.8974632 48.3398665,12.39504 47.9689999,12.0127557 C47.5981333,11.6304714 47.1454646,11.4393321 46.6109804,11.4393321 C46.0764962,11.4393321 45.6238276,11.6304714 45.252961,12.0127557 C44.8820943,12.39504 44.6966638,12.8974632 44.6966638,13.5200405 Z M53.6137795,16.6984454 C52.6975209,15.8792648 52.2393984,14.8198071 52.2393984,13.5200405 C52.2393984,12.2202739 52.6975209,11.1553551 53.6137795,10.325252 C54.5300382,9.49514901 55.6589828,9.08010372 57.0006473,9.08010372 C58.3532197,9.08010372 59.4903451,9.49241845 60.4120576,10.3170603 C61.3337702,11.1417021 61.7946196,12.2093515 61.7946196,13.5200405 C61.7946196,14.8198071 61.3364972,15.8765342 60.4202385,16.6902536 C59.5039798,17.503973 58.3695813,17.9108266 57.017009,17.9108266 C55.6644367,17.9108266 54.5300382,17.5067036 53.6137795,16.6984454 Z M55.1026924,13.5200405 C55.1026924,14.1316953 55.2881229,14.6231963 55.6589896,14.9945582 C56.0298562,15.3659201 56.4825248,15.5515982 57.017009,15.5515982 C57.5514932,15.5515982 58.0041619,15.3659201 58.3750285,14.9945582 C58.7458951,14.6231963 58.9313256,14.1316953 58.9313256,13.5200405 C58.9313256,12.8974632 58.7458951,12.39504 58.3750285,12.0127557 C58.0041619,11.6304714 57.5514932,11.4393321 57.017009,11.4393321 C56.4825248,11.4393321 56.0298562,11.6304714 55.6589896,12.0127557 C55.2881229,12.39504 55.1026924,12.8974632 55.1026924,13.5200405 Z M63.2671708,17.7142243 L63.2671708,6 L66.0977415,6 L66.0977415,12.0619063 L66.8994638,12.0619063 L68.5683552,9.27670609 L71.6443511,9.27670609 L69.1737374,13.1104522 L69.1737374,13.1432193 L71.9879464,17.7142243 L68.7646954,17.7142243 L66.9812722,14.4375182 L66.0977415,14.4375182 L66.0977415,17.7142243 L63.2671708,17.7142243 Z M73.1005406,8.21177661 L73.1005406,6 L75.8656646,6 L75.8656646,8.21177661 L73.1005406,8.21177661 Z M73.0678173,17.7142243 L73.0678173,9.27670609 L75.8983879,9.27670609 L75.8983879,17.7142243 L73.0678173,17.7142243 Z M77.992683,17.7142243 L77.992683,9.27670609 L80.7087219,9.27670609 L80.7087219,10.013965 L80.6759986,10.5382379 L80.7087219,10.5382379 C81.2868375,9.5661436 82.1812671,9.08010372 83.3920375,9.08010372 C85.4099881,9.08010372 86.4189483,10.1341003 86.4189483,12.2421251 L86.4189483,17.7142243 L83.5883776,17.7142243 L83.5883776,12.7663981 C83.5883776,12.0236743 83.2775088,11.652318 82.6557619,11.652318 C81.8158581,11.652318 81.2595665,12.056441 80.9868705,12.8646993 C80.8777921,13.1814491 80.8232537,13.5528054 80.8232537,13.9787793 L80.8232537,17.7142243 L77.992683,17.7142243 Z M89.4458591,18.2548808 C90.143961,18.6153202 90.9347676,18.7955373 91.8183028,18.7955373 C93.1163359,18.7955373 93.7653427,18.2548862 93.7653427,17.1735678 L93.7653427,16.8950477 L93.7817044,16.5837607 L93.748981,16.5837607 C93.2581282,17.1735707 92.554583,17.4684713 91.6383243,17.4684713 C90.4384617,17.4684713 89.5058553,17.053426 88.840477,16.223323 C88.1750986,15.39322 87.8424145,14.3938346 87.8424145,13.2251369 C87.8424145,12.0673617 88.1696448,11.0870902 88.8241153,10.2842932 C89.4785858,9.48149621 90.4111922,9.08010372 91.6219626,9.08010372 C92.0800919,9.08010372 92.5000375,9.14836775 92.881812,9.28489785 C93.2635864,9.42142796 93.5308245,9.55522545 93.6835343,9.68629435 L93.9125978,9.89928025 L93.9616829,9.89928025 C93.950775,9.8337458 93.9453212,9.76821233 93.9453212,9.70267788 L93.9453212,9.27670609 L96.5959134,9.27670609 L96.5959134,16.9441983 C96.5959134,17.6869221 96.4595674,18.3367956 96.1868714,18.8938385 C95.9141753,19.4508813 95.5433143,19.8905016 95.0742771,20.2127127 C94.6052399,20.5349237 94.1007599,20.7724825 93.5608217,20.9253962 C93.0208836,21.0783099 92.4455036,21.1547657 91.8346644,21.1547657 C90.6675254,21.1547657 89.6040268,20.903554 88.6441368,20.4011233 L89.4458591,18.2548808 Z M92.3091532,15.1092429 C92.7454668,15.1092429 93.1081471,14.9699843 93.3972049,14.6914629 C93.6862627,14.4129415 93.8307894,13.9350933 93.8307894,13.257904 C93.8307894,12.0455167 93.2854055,11.4393321 92.1946214,11.4393321 C91.7146764,11.4393321 91.3438153,11.5949741 91.0820272,11.9062627 C90.820239,12.2175514 90.6893468,12.624405 90.6893468,13.1268357 C90.6893468,13.694801 90.8256928,14.167188 91.0983888,14.5440111 C91.3710849,14.9208342 91.7746689,15.1092429 92.3091532,15.1092429 Z M102.764267,17.7142243 L102.764267,6 L110.0943,6 L110.0943,8.45752957 L105.627561,8.45752957 L105.627561,10.5873885 L109.194407,10.5873885 L109.194407,13.0449181 L105.627561,13.0449181 L105.627561,15.2566947 L110.323363,15.2566947 L110.323363,17.7142243 L102.764267,17.7142243 Z M111.255979,17.7142243 L113.906571,13.536424 L111.190532,9.27670609 L114.38106,9.27670609 L115.297314,11.1608121 L115.559101,11.7178521 L115.591824,11.7178521 L115.853611,11.1608121 L115.853611,11.1608121 L116.769865,9.27670609 L119.960393,9.27670609 L117.260715,13.536424 L119.911308,17.7142243 L116.802588,17.7142243 L115.788164,15.8137347 L115.591824,15.3877629 L115.559101,15.3877629 L115.472711,15.5896083 C115.44566,15.6498996 115.420354,15.7032005 115.396793,15.7495112 L114.364698,17.7142243 L111.255979,17.7142243 Z M121.187519,20.9909304 L121.187519,9.27670609 L123.739941,9.27670609 L123.739941,9.70267788 L123.707217,10.2433344 L123.739941,10.2433344 C123.761756,10.2105672 123.79448,10.1696087 123.838111,10.1204579 L123.92426,10.0331906 C123.975905,9.98370584 124.045358,9.91995509 124.132621,9.84193789 C124.285331,9.70540779 124.448946,9.5852631 124.623472,9.48150022 C124.797997,9.37773734 125.035239,9.28489826 125.335205,9.2029802 C125.63517,9.12106214 125.95422,9.08010372 126.292363,9.08010372 C127.437686,9.08010372 128.356658,9.48695733 129.049306,10.3006767 C129.741954,11.1143962 130.088273,12.1820455 130.088273,13.5036569 C130.088273,14.8252683 129.717412,15.8901872 128.975678,16.6984454 C128.233945,17.5067036 127.295885,17.9108266 126.161469,17.9108266 C125.757879,17.9108266 125.376111,17.8452932 125.016152,17.7142243 C124.656193,17.5831554 124.399863,17.4520884 124.247153,17.3210195 L124.018089,17.1080336 L123.985366,17.1080336 C124.007182,17.304637 124.018089,17.5449264 124.018089,17.828909 L124.018089,20.9909304 L121.187519,20.9909304 Z M123.936281,13.5528075 C123.936281,14.0989279 124.080808,14.571315 124.369865,14.9699829 C124.658923,15.3686508 125.065234,15.5679818 125.588811,15.5679818 C126.057848,15.5679818 126.450524,15.3877647 126.766852,15.0273253 C127.083179,14.6668858 127.24134,14.1753848 127.24134,13.5528075 C127.24134,12.9302303 127.088633,12.427807 126.783213,12.0455227 C126.477794,11.6632384 126.079664,11.4720992 125.588811,11.4720992 C125.119773,11.4720992 124.727097,11.6468551 124.41077,11.9963721 C124.094442,12.3458892 123.936281,12.8646958 123.936281,13.5528075 Z M131.004527,13.4872734 C131.004527,12.2202741 131.402657,11.169008 132.198929,10.3334438 C132.995202,9.49787957 134.0587,9.08010372 135.389457,9.08010372 C136.600227,9.08010372 137.551922,9.45965172 138.24457,10.2187591 C138.937218,10.9778665 139.283537,11.9581379 139.283537,13.1596028 L139.21809,14.0443134 L133.900544,14.0443134 C133.998715,14.5358218 134.230503,14.9099087 134.595916,15.1665853 C134.961328,15.4232619 135.384001,15.5515982 135.863946,15.5515982 C136.223905,15.5515982 136.597493,15.4806037 136.984721,15.3386124 C137.371949,15.196621 137.669184,15.0546319 137.876432,14.9126406 L138.187304,14.6996547 L139.234452,16.6820618 C139.136281,16.7694411 138.991755,16.8813941 138.800867,17.0179242 C138.60998,17.1544543 138.200942,17.3374019 137.573741,17.5667725 C136.946541,17.7961431 136.300261,17.9108266 135.634882,17.9108266 C134.205955,17.9108266 133.07701,17.4739369 132.248015,16.6001442 C131.419019,15.7263515 131.004527,14.6887383 131.004527,13.4872734 Z M133.965991,12.4223439 L136.436605,12.4223439 C136.436605,12.0946717 136.332982,11.8106933 136.125733,11.5704004 C135.918484,11.3301074 135.651246,11.2099627 135.32401,11.2099627 C134.615001,11.2099627 134.162332,11.6140857 133.965991,12.4223439 Z M140.821535,17.7142243 L140.821535,9.27670609 L143.537574,9.27670609 L143.537574,10.7020732 L143.50485,11.2263462 L143.537574,11.2263462 C143.723007,10.6365362 144.063872,10.139574 144.560179,9.73544494 C145.056486,9.33131584 145.61005,9.12925431 146.220889,9.12925431 L146.548123,9.16202138 L146.548123,11.9472216 C146.395413,11.9144543 146.204529,11.898071 145.975464,11.898071 C144.841049,11.898071 144.115688,12.389572 143.799361,13.3725887 C143.70119,13.6893385 143.652106,14.0716171 143.652106,14.5194358 L143.652106,17.7142243 L140.821535,17.7142243 Z M148.282461,14.6013535 L148.282461,11.6359345 L147.20259,11.6359345 L147.20259,9.42415786 L148.364269,9.42415786 L148.364269,6.99939536 L151.113032,6.99939536 L151.113032,9.42415786 L152.880093,9.42415786 L152.880093,11.6359345 L151.113032,11.6359345 L151.113032,14.2245323 C151.113032,14.9454112 151.614785,15.3058453 152.618306,15.3058453 L152.994625,15.2894618 L152.994625,17.7469913 C152.787376,17.7797586 152.531046,17.7961419 152.225626,17.7961419 C151.963838,17.7961419 151.710234,17.7824891 151.464808,17.7551831 C151.219381,17.7278771 150.935782,17.6759964 150.614001,17.5995396 C150.292219,17.5230827 150.003166,17.4083991 149.746831,17.2554854 C149.490497,17.1025717 149.247801,16.914163 149.018737,16.6902536 C148.789672,16.4663442 148.609695,16.1741742 148.478801,15.8137347 C148.347907,15.4532953 148.282461,15.0491722 148.282461,14.6013535 Z M153.992687,16.6656783 L155.203452,14.7651888 C155.268899,14.8307232 155.364341,14.9099095 155.489781,15.00275 C155.615221,15.0955904 155.866098,15.2211963 156.242419,15.3795712 C156.618739,15.5379461 156.986873,15.6171324 157.346832,15.6171324 C157.903132,15.6171324 158.181278,15.4860654 158.181278,15.2239276 C158.181278,15.0928587 158.044932,14.9645224 157.772236,14.8389147 L157.481361,14.7096667 C157.275326,14.6210744 157.045051,14.5276281 156.790535,14.4293264 C156.40876,14.2818739 156.024265,14.1043874 155.637036,13.8968617 C155.249808,13.6893359 154.919851,13.3917048 154.647155,13.0039593 C154.374459,12.6162138 154.238113,12.1656712 154.238113,11.652318 C154.238113,10.876827 154.56807,10.2542591 155.227994,9.78459553 C155.887919,9.31493198 156.714175,9.08010372 157.706789,9.08010372 C158.077655,9.08010372 158.432155,9.11287046 158.770298,9.17840491 C159.108441,9.24393936 159.386587,9.32312563 159.604744,9.4159661 C159.822901,9.50880657 160.016512,9.60437621 160.185583,9.70267788 C160.354655,9.80097955 160.477366,9.88289639 160.553721,9.94843084 L160.668253,10.046732 L159.702914,12.0619063 C159.637467,12.0072942 159.550205,11.9417608 159.441127,11.8653039 C159.332049,11.788847 159.102987,11.6878163 158.753936,11.5622086 C158.404885,11.4366009 158.05584,11.373798 157.706789,11.373798 C157.150489,11.373798 156.872343,11.510326 156.872343,11.7833862 C156.872343,11.8926103 157.008689,12.0045633 157.281385,12.1192486 C157.554081,12.2339339 157.881312,12.3622703 158.263086,12.5042616 C158.64486,12.6462529 159.029356,12.8182782 159.416584,13.0203428 C159.803813,13.2224073 160.13377,13.5173079 160.406466,13.9050534 C160.679162,14.2927989 160.815508,14.7378804 160.815508,15.2403112 C160.815508,15.9939573 160.501912,16.6274475 159.874712,17.1408007 C159.247511,17.6541539 158.410346,17.9108266 157.363194,17.9108266 C156.741447,17.9108266 156.149705,17.8070653 155.587951,17.5995396 C155.026197,17.3920138 154.619886,17.1844912 154.369006,16.9769654 L153.992687,16.6656783 Z" id="BookingExperts" fill="#3A3A3A" fill-rule="nonzero"></path>
        </g>
    </g>
</svg>